<?xml version="1.0" standalone="no"?>
<!DOCTYPE svg PUBLIC "-//W3C//DTD SVG 20010904//EN"
 "http://www.w3.org/TR/2001/REC-SVG-20010904/DTD/svg10.dtd">
<svg version="1.0" xmlns="http://www.w3.org/2000/svg"
 width="1000.000000pt" height="1000.000000pt" viewBox="0 0 1000.000000 1000.000000"
 preserveAspectRatio="xMidYMid meet">
<metadata>
Created by potrace 1.14, written by Peter Selinger 2001-2017
</metadata>
<g transform="translate(0.000000,1000.000000) scale(0.100000,-0.100000)"
fill="#000000" stroke="none">
<path d="M4874 8576 c-3 -8 3 -29 14 -47 10 -19 21 -43 25 -54 19 -65 38 -135
44 -165 10 -45 10 -243 1 -295 -16 -88 -19 -101 -30 -135 -7 -19 -13 -39 -14
-45 -5 -28 -70 -186 -95 -231 -16 -28 -25 -54 -22 -58 4 -3 1 -6 -5 -6 -7 0
-12 -6 -12 -13 0 -17 -26 -39 -62 -54 -22 -10 -30 -9 -47 6 -21 19 -46 111
-30 111 5 0 5 10 0 23 -5 14 -5 30 0 40 7 11 6 17 0 17 -6 0 -8 6 -5 13 9 23
11 380 2 427 -17 98 -85 188 -176 234 -27 14 -52 23 -54 20 -3 -2 -2 -23 2
-45 17 -90 -2 -216 -45 -314 -57 -127 -113 -336 -130 -485 -2 -14 -4 -25 -5
-25 -1 0 -3 -9 -5 -20 -1 -11 -8 -40 -14 -65 -6 -25 -13 -52 -15 -60 -34 -137
-72 -193 -124 -184 -14 3 -30 11 -35 17 -8 12 -3 144 10 282 8 92 8 277 0 343
-7 53 -10 72 -27 147 -5 22 -11 52 -15 68 -3 15 -9 27 -13 27 -8 0 -116 -141
-235 -306 -112 -156 -186 -330 -202 -477 -3 -28 -8 -63 -10 -77 -4 -25 -15
-143 -21 -210 -1 -19 -3 -35 -4 -35 -1 0 -3 -16 -6 -35 -17 -134 -110 -282
-185 -294 -57 -10 -101 5 -125 42 -18 27 -21 103 -8 182 12 70 13 220 2 252
-12 35 -49 98 -58 98 -3 0 -7 -12 -8 -27 -3 -30 -9 -66 -12 -70 -2 -2 -3 -6
-4 -10 -12 -53 -101 -224 -126 -243 -23 -17 -133 -180 -159 -237 -18 -37 -37
-76 -42 -86 -5 -9 -18 -56 -29 -103 -27 -114 -29 -220 -6 -344 17 -98 81 -236
161 -350 30 -43 55 -87 55 -98 0 -10 -12 -41 -27 -68 -76 -141 -94 -203 -82
-291 11 -78 44 -142 118 -227 34 -38 63 -77 67 -88 3 -11 -7 -40 -28 -74 -18
-30 -40 -67 -48 -82 -8 -15 -17 -29 -20 -32 -6 -6 -60 -117 -60 -124 0 -2 -5
-17 -12 -33 -6 -15 -12 -30 -13 -33 -1 -3 -4 -12 -8 -20 -39 -96 -78 -300 -76
-398 2 -89 0 -88 51 -42 49 44 143 110 156 110 6 0 12 4 14 8 13 31 411 146
550 158 61 5 71 4 62 -7 -6 -8 -62 -81 -125 -164 -143 -187 -177 -233 -226
-315 -40 -67 -102 -200 -109 -233 -2 -10 -5 -26 -8 -35 -50 -166 -11 -361 99
-494 46 -57 189 -168 215 -168 4 0 24 -7 44 -15 20 -8 38 -15 41 -16 2 0 21
-7 40 -15 20 -8 40 -12 45 -9 5 3 11 1 14 -4 3 -4 29 -12 58 -16 29 -4 64 -9
78 -12 14 -2 90 -5 170 -7 119 -2 144 -5 142 -17 -3 -17 -98 -274 -114 -309
-7 -14 -12 -27 -13 -30 0 -3 -12 -36 -25 -75 -13 -38 -24 -72 -25 -75 0 -3 -3
-9 -7 -15 -6 -11 -58 -198 -63 -230 -2 -11 -5 -29 -8 -40 -11 -50 -28 -175
-32 -250 -2 -34 -5 -66 -6 -71 -6 -33 4 -34 29 -4 75 91 180 183 336 295 102
73 218 164 257 201 l45 44 -2 -77 c-1 -43 -5 -154 -9 -248 -3 -93 -8 -232 -10
-308 l-4 -138 32 23 c33 23 295 283 334 330 111 136 323 435 323 454 0 3 8 18
18 32 11 15 32 52 48 82 16 30 31 57 34 60 3 3 12 19 20 35 9 17 20 30 25 30
6 0 10 -99 10 -257 0 -141 3 -259 6 -262 6 -6 160 142 204 195 48 58 148 195
158 216 6 13 17 23 24 23 8 0 12 -3 10 -7 -3 -5 -8 -57 -12 -118 -13 -201 -40
-364 -86 -530 -11 -38 -22 -77 -24 -85 -2 -8 -6 -28 -11 -44 -7 -28 -7 -29 13
-10 10 10 39 35 63 54 83 64 285 274 358 370 39 52 76 100 82 107 5 7 10 16
10 22 0 5 3 11 8 13 7 3 82 114 82 122 0 3 10 20 23 38 39 59 210 412 222 461
4 15 11 30 16 33 5 3 9 16 9 29 0 13 4 26 9 30 5 3 15 22 22 43 22 70 29 69
71 -10 21 -40 38 -78 38 -85 0 -7 5 -13 10 -13 6 0 10 -9 10 -19 0 -11 4 -22
9 -25 5 -3 21 -32 35 -63 15 -32 32 -67 39 -78 20 -37 61 -120 61 -127 1 -3 4
-9 8 -13 4 -4 19 -32 34 -63 l27 -56 28 34 c42 50 172 320 212 440 33 97 64
224 72 295 13 104 15 139 15 220 0 87 -6 172 -16 225 -2 14 -7 41 -10 60 -3
19 -17 73 -31 120 -14 47 -26 90 -27 95 -7 25 -65 159 -96 220 -41 79 -155
263 -215 345 -30 41 -63 86 -73 100 -9 13 -24 32 -32 40 -8 9 -37 43 -65 76
-50 60 -276 289 -351 355 -33 30 -244 201 -279 227 -92 68 -135 98 -215 152
-52 35 -96 68 -98 72 -2 4 -9 8 -15 8 -14 0 -127 117 -127 132 0 12 -79 88
-91 88 -4 0 -44 23 -89 50 -45 28 -85 50 -90 50 -5 0 -10 3 -12 8 -1 4 -16 15
-33 24 -42 23 -42 34 2 58 65 35 127 71 163 95 19 13 48 29 64 38 l29 14 -49
19 c-41 16 -73 19 -204 17 l-155 -1 30 24 c49 39 253 157 334 192 42 18 154
60 249 92 206 70 267 97 347 152 237 161 322 535 180 795 -18 33 -41 69 -49
80 -9 10 -22 27 -30 37 -13 18 -14 16 -25 -30 -6 -27 -13 -56 -15 -66 -8 -30
-36 -77 -61 -103 -25 -25 -45 -32 -45 -17 0 4 -2 79 -4 167 -2 120 -6 169 -18
195 -15 33 -90 114 -209 225 -30 27 -83 77 -118 110 l-63 60 6 -69 c4 -38 9
-73 12 -78 13 -20 12 -188 -1 -236 -17 -65 -58 -138 -87 -153 -71 -38 -118
-23 -140 43 -15 42 -16 198 -3 288 13 92 16 248 6 290 -7 25 -14 56 -17 70 -7
35 -59 139 -86 174 -78 100 -175 165 -286 192 -43 10 -54 10 -58 0z m210 -165
c-2 -3 -12 3 -22 13 -16 17 -16 18 5 5 12 -7 20 -15 17 -18z m45 -55 c-2 -2
-13 8 -23 22 l-19 27 24 -22 c12 -12 21 -24 18 -27z m81 -140 c11 -33 18 -61
16 -63 -2 -3 -12 20 -21 49 -10 29 -28 73 -41 97 -31 57 -30 67 1 16 14 -22
34 -67 45 -99z m-645 -156 c4 -25 4 -42 1 -39 -3 3 -8 23 -12 45 -3 21 -10 47
-15 56 -5 9 -9 20 -9 25 1 22 29 -48 35 -87z m670 51 c2 -12 0 -19 -6 -16 -5
4 -9 16 -9 27 0 26 9 19 15 -11z m2 -53 c-3 -8 -6 -5 -6 6 -1 11 2 17 5 13 3
-3 4 -12 1 -19z m-2 -55 c-9 -103 -18 -170 -26 -188 -7 -16 -8 -13 -4 10 6 38
17 131 20 170 4 42 4 45 9 45 2 0 3 -17 1 -37z m-658 -28 c0 -8 -4 -12 -9 -9
-5 3 -6 10 -3 15 9 13 12 11 12 -6z m-1 -59 c-1 -19 -3 -32 -6 -29 -8 7 -8 63
0 63 4 0 6 -15 6 -34z m-591 -100 c1 -37 0 -68 -4 -70 -3 -2 -7 29 -7 70 -2
92 7 91 11 0z m577 12 c-6 -6 -7 0 -4 19 5 21 7 23 10 9 2 -10 0 -22 -6 -28z
m3 -28 c3 -5 1 -10 -4 -10 -6 0 -11 5 -11 10 0 6 2 10 4 10 3 0 8 -4 11 -10z
m645 -20 c0 -5 -5 -10 -11 -10 -5 0 -7 5 -4 10 3 6 8 10 11 10 2 0 4 -4 4 -10z
m-654 -20 c0 -12 -4 -16 -9 -11 -5 5 -6 14 -3 20 10 15 12 14 12 -9z m-572
-57 c-3 -16 -9 -48 -14 -73 -8 -41 -9 -39 -3 15 3 33 6 66 6 73 0 6 4 12 8 12
5 0 6 -12 3 -27z m566 17 c0 -5 -5 -10 -11 -10 -5 0 -7 5 -4 10 3 6 8 10 11
10 2 0 4 -4 4 -10z m660 6 c0 -3 -4 -8 -10 -11 -5 -3 -10 -1 -10 4 0 6 5 11
10 11 6 0 10 -2 10 -4z m588 -41 c-3 -3 -9 2 -12 12 -6 14 -5 15 5 6 7 -7 10
-15 7 -18z m-601 -17 c-3 -7 -5 -2 -5 12 0 14 2 19 5 13 2 -7 2 -19 0 -25z
m-659 -28 c-1 -17 -4 -33 -8 -35 -4 -2 -5 6 -4 18 1 12 3 28 3 35 2 26 10 10
9 -18z m1280 5 c-3 -3 -9 2 -12 12 -6 14 -5 15 5 6 7 -7 10 -15 7 -18z m-790
-69 c-18 -36 -36 -66 -40 -66 -3 0 10 31 30 69 46 88 54 86 10 -3z m177 64 c3
-5 1 -10 -4 -10 -6 0 -11 5 -11 10 0 6 2 10 4 10 3 0 8 -4 11 -10z m633 -35
c-3 -3 -9 2 -12 12 -6 14 -5 15 5 6 7 -7 10 -15 7 -18z m-641 -7 c-3 -8 -6 -5
-6 6 -1 11 2 17 5 13 3 -3 4 -12 1 -19z m-667 -33 c0 -14 -4 -25 -9 -25 -4 0
-6 11 -3 25 2 14 6 25 8 25 2 0 4 -11 4 -25z m-570 -14 c-4 -16 -6 -32 -2 -35
3 -3 0 -6 -7 -6 -7 0 -9 -5 -5 -12 4 -7 3 -8 -4 -4 -9 5 -9 13 -2 26 5 10 10
28 10 39 0 12 4 21 9 21 6 0 6 -12 1 -29z m1894 3 c3 -8 2 -12 -4 -9 -6 3 -10
10 -10 16 0 14 7 11 14 -7z m-1324 -34 c0 -5 -5 -10 -11 -10 -5 0 -7 5 -4 10
3 6 8 10 11 10 2 0 4 -4 4 -10z m688 -21 c-3 -8 -7 -3 -11 10 -4 17 -3 21 5
13 5 -5 8 -16 6 -23z m642 21 c0 -5 -4 -10 -10 -10 -5 0 -10 5 -10 10 0 6 5
10 10 10 6 0 10 -4 10 -10z m-1333 -52 c-3 -7 -5 -2 -5 12 0 14 2 19 5 13 2
-7 2 -19 0 -25z m1329 -10 c-3 -24 -8 -59 -12 -78 -3 -19 -7 -40 -8 -47 -1 -7
-5 -15 -9 -19 -3 -4 -5 2 -3 13 3 11 7 38 11 59 4 22 8 46 10 54 2 8 4 25 4
38 1 12 4 22 7 22 3 0 3 -19 0 -42z m-1917 -16 c-6 -15 -10 -28 -10 -29 5 -17
-1 -43 -10 -43 -5 0 -8 4 -5 8 5 9 18 68 19 89 0 7 4 10 8 7 5 -2 4 -17 -2
-32z m1019 6 c-8 -13 -27 -44 -44 -70 -16 -27 -32 -48 -35 -48 -4 0 14 32 39
70 25 39 47 70 50 70 2 0 -2 -10 -10 -22z m-422 -42 c1 -7 5 -24 8 -37 5 -18
5 -20 -3 -8 -11 18 -23 75 -14 65 4 -4 8 -13 9 -20z m-619 -68 c-3 -8 -6 -5
-6 6 -1 11 2 17 5 13 3 -3 4 -12 1 -19z m-2 -67 c0 -27 -2 -48 -5 -46 -5 3 -6
83 -1 93 4 9 6 -4 6 -47z m945 34 c-7 -8 -17 -15 -23 -15 -6 0 -2 7 9 15 25
19 30 19 14 0z m-280 -5 c0 -5 -2 -10 -4 -10 -3 0 -8 5 -11 10 -3 6 -1 10 4
10 6 0 11 -4 11 -10z m1269 -45 c0 -5 -4 -3 -9 5 -5 8 -9 22 -9 30 0 16 17
-16 18 -35z m269 -1 c-3 -14 -5 -12 -10 9 -3 19 -2 25 4 19 6 -6 8 -18 6 -28z
m-243 -34 c3 -6 -1 -7 -9 -4 -18 7 -21 14 -7 14 6 0 13 -4 16 -10z m250 -20
c2 -12 1 -20 -2 -16 -4 4 -8 16 -10 28 -4 28 6 18 12 -12z m-2185 -50 c6 -11
8 -20 6 -20 -3 0 -10 9 -16 20 -6 11 -8 20 -6 20 3 0 10 -9 16 -20z m2190 10
c0 -5 -2 -10 -4 -10 -3 0 -8 5 -11 10 -3 6 -1 10 4 10 6 0 11 -4 11 -10z m-3
-52 c-3 -7 -5 -2 -5 12 0 14 2 19 5 13 2 -7 2 -19 0 -25z m3 -33 c0 -8 -4 -15
-8 -15 -5 0 -9 7 -9 15 0 8 4 15 9 15 4 0 8 -7 8 -15z m0 -40 c0 -8 -4 -15
-10 -15 -5 0 -7 7 -4 15 4 8 8 15 10 15 2 0 4 -7 4 -15z m-20 -104 c-6 -22
-14 -42 -18 -45 -5 -3 -1 17 7 44 18 59 27 60 11 1z m-45 -115 c-15 -26 -47
-68 -72 -94 l-45 -47 42 50 c22 27 53 70 68 97 14 26 28 45 30 43 2 -2 -8 -24
-23 -49z m-2959 -22 c1 -9 0 -13 -4 -10 -3 4 -7 14 -8 22 -1 9 0 13 4 10 3 -4
7 -14 8 -22z m1 -76 c0 -41 -1 -46 -6 -23 -4 17 -6 37 -5 45 1 8 3 18 3 23 1
4 2 7 4 7 1 0 3 -24 4 -52z m481 -50 c-11 -61 -43 -122 -84 -158 -26 -23 -25
-22 4 13 50 59 69 106 75 184 0 12 4 20 8 18 3 -3 2 -28 -3 -57z m-464 -24 c3
-8 2 -12 -4 -9 -6 3 -10 10 -10 16 0 14 7 11 14 -7z m2786 12 c0 -2 -8 -10
-17 -17 -16 -13 -17 -12 -4 4 13 16 21 21 21 13z m-2769 -53 c13 -16 12 -17
-3 -4 -17 13 -22 21 -14 21 2 0 10 -8 17 -17z m2159 -7 c0 -2 -7 -7 -16 -10
-8 -3 -12 -2 -9 4 6 10 25 14 25 6z m-2125 -26 c3 -6 -1 -7 -9 -4 -18 7 -21
14 -7 14 6 0 13 -4 16 -10z m1995 -44 c0 -2 -7 -7 -16 -10 -8 -3 -12 -2 -9 4
6 10 25 14 25 6z m-60 -30 c0 -2 -8 -10 -17 -17 -16 -13 -17 -12 -4 4 13 16
21 21 21 13z m-1640 -11 c0 -2 -10 -9 -22 -15 -22 -11 -22 -10 -4 4 21 17 26
19 26 11z m1528 -87 c-40 -40 -75 -71 -78 -70 -5 4 136 142 145 142 3 0 -27
-33 -67 -72z m217 -18 c-3 -5 -12 -10 -18 -10 -7 0 -6 4 3 10 19 12 23 12 15
0z m-35 -15 c0 -2 -10 -9 -22 -15 -22 -11 -22 -10 -4 4 21 17 26 19 26 11z
m-479 -48 c-10 -9 -11 -8 -5 6 3 10 9 15 12 12 3 -3 0 -11 -7 -18z m429 19 c0
-2 -8 -10 -17 -17 -16 -13 -17 -12 -4 4 13 16 21 21 21 13z m-2199 -53 c-12
-20 -14 -14 -5 12 4 9 9 14 11 11 3 -2 0 -13 -6 -23z m2158 24 c-2 -1 -13 -9
-24 -17 -19 -14 -19 -14 -6 3 7 9 18 17 24 17 6 0 8 -1 6 -3z m-406 -24 c-7
-3 -13 -11 -13 -18 0 -8 -4 -17 -10 -20 -6 -4 -7 1 -3 12 9 26 25 44 32 37 3
-4 0 -9 -6 -11z m197 -31 c-11 -22 -20 -46 -20 -52 0 -5 -5 -10 -10 -10 -7 0
-7 6 -2 18 5 9 17 34 27 55 10 21 19 36 21 34 2 -2 -5 -22 -16 -45z m-1970
-39 c-11 -17 -11 -17 -6 0 3 10 7 26 7 35 1 15 2 15 6 0 2 -10 -1 -25 -7 -35z
m1643 -130 c-107 -163 -153 -229 -153 -220 0 3 50 80 111 172 61 92 113 173
116 181 3 8 9 14 14 14 5 0 -35 -66 -88 -147z m-1646 70 c-3 -10 -5 -4 -5 12
0 17 2 24 5 18 2 -7 2 -21 0 -30z m1936 -3 c-3 -11 -9 -20 -15 -20 -5 0 -4 8
1 19 6 10 7 22 3 26 -4 5 -2 5 5 2 6 -4 9 -16 6 -27z m-1936 -57 c-3 -10 -5
-4 -5 12 0 17 2 24 5 18 2 -7 2 -21 0 -30z m1911 2 c-6 -14 -13 -23 -15 -21
-5 5 15 46 22 46 3 0 -1 -11 -7 -25z m-1903 -35 c3 -5 1 -10 -4 -10 -6 0 -11
5 -11 10 0 6 2 10 4 10 3 0 8 -4 11 -10z m1415 5 c0 -2 -10 -9 -22 -15 -22
-11 -22 -10 -4 4 21 17 26 19 26 11z m820 1 c0 -2 -8 -10 -17 -17 -16 -13 -17
-12 -4 4 13 16 21 21 21 13z m-490 -28 c0 -36 -33 -178 -42 -178 -10 0 -11 -8
11 75 10 39 18 82 17 98 -1 15 1 27 6 27 4 0 8 -10 8 -22z m121 -11 l-23 -22
17 28 c10 15 20 25 23 22 3 -3 -5 -16 -17 -28z m-536 -27 c-21 -22 -40 -38
-43 -36 -4 4 69 75 78 76 2 0 -13 -18 -35 -40z m860 31 c-3 -5 -24 -24 -48
-41 l-42 -32 45 41 c46 41 56 48 45 32z m-2188 -38 c1 -22 -1 -24 -8 -10 -6 9
-7 22 -4 27 9 14 10 13 12 -17z m2063 -69 c-18 -15 -38 -34 -45 -41 -9 -8 -16
-9 -20 -3 -3 5 -2 10 3 10 6 0 27 15 48 34 21 19 41 33 43 31 2 -2 -11 -16
-29 -31z m-780 22 c0 -2 -7 -9 -15 -16 -13 -11 -14 -10 -9 4 5 14 24 23 24 12z
m-61 -81 c-18 -25 -34 -45 -37 -45 -2 0 3 10 12 23 9 12 21 32 28 45 6 12 15
22 20 22 5 0 -5 -20 -23 -45z m151 -30 c0 -25 -4 -45 -8 -45 -5 0 -8 20 -8 45
1 59 16 59 16 0z m325 -7 c-11 -36 -22 -41 -17 -8 2 16 9 30 14 30 5 0 6 -10
3 -22z m-545 -68 c-12 -16 -24 -30 -26 -30 -7 0 5 20 24 43 24 27 25 20 2 -13z
m219 -26 c-4 -62 -16 -65 -15 -4 1 28 5 50 9 50 4 0 7 -21 6 -46z m-255 -26
c-21 -36 -85 -128 -89 -128 -3 0 16 32 41 70 26 39 49 70 51 70 2 0 1 -6 -3
-12z m1336 -50 c26 -28 63 -78 57 -78 -2 0 -23 23 -46 50 -43 51 -50 69 -11
28z m-760 -21 c0 -2 -10 -12 -22 -23 l-23 -19 19 23 c18 21 26 27 26 19z m220
-82 c0 -11 -14 7 -31 40 -7 13 -3 12 10 -5 11 -14 21 -29 21 -35z m-890 0 c-7
-9 -15 -13 -19 -10 -3 3 1 10 9 15 21 14 24 12 10 -5z m1555 -37 l50 -53 -55
50 c-30 28 -57 51 -59 53 -2 1 0 2 5 2 5 0 32 -24 59 -52z m-806 -57 c-3 -55
-8 -71 -21 -71 -7 0 -7 4 -1 13 15 18 13 99 -4 127 l-14 25 21 -24 c16 -19 21
-36 19 -70z m-199 76 c0 -2 -15 -16 -32 -33 l-33 -29 29 33 c28 30 36 37 36
29z m347 -29 c-3 -7 -5 -2 -5 12 0 14 2 19 5 13 2 -7 2 -19 0 -25z m-945 -28
c-15 -27 -30 -50 -34 -50 -4 0 6 23 23 50 40 65 47 65 11 0z m948 -36 c-5 -12
-6 -25 -2 -30 4 -4 2 -4 -5 0 -8 4 -9 14 -4 29 4 12 6 29 4 37 -4 13 -3 13 5
1 6 -9 7 -23 2 -37z m-420 22 c0 -2 -8 -10 -17 -17 -16 -13 -17 -12 -4 4 13
16 21 21 21 13z m1185 -36 c10 -11 16 -20 13 -20 -3 0 -13 9 -23 20 -10 11
-16 20 -13 20 3 0 13 -9 23 -20z m-1770 -37 c-43 -66 -71 -103 -79 -103 -5 0
0 10 11 23 11 12 33 41 48 65 15 23 30 42 32 42 3 0 -3 -12 -12 -27z m995 -3
c0 -5 -5 -10 -11 -10 -5 0 -7 5 -4 10 3 6 8 10 11 10 2 0 4 -4 4 -10z m-179
-33 c-10 -9 -11 -8 -5 6 3 10 9 15 12 12 3 -3 0 -11 -7 -18z m160 -10 c-10 -9
-11 -8 -5 6 3 10 9 15 12 12 3 -3 0 -11 -7 -18z m-186 -7 c-3 -5 -12 -10 -18
-10 -7 0 -6 4 3 10 19 12 23 12 15 0z m174 -27 c-32 -42 -69 -83 -69 -77 0 3
14 22 30 41 17 18 30 38 30 43 0 6 5 10 11 10 8 0 7 -6 -2 -17z m1012 -30 c13
-16 12 -17 -3 -4 -10 7 -18 15 -18 17 0 8 8 3 21 -13z m-2729 -33 c-2 -22 -6
-40 -8 -40 -2 0 -4 18 -4 40 0 22 3 40 8 40 4 0 6 -18 4 -40z m1308 30 c0 -5
-2 -10 -4 -10 -3 0 -8 5 -11 10 -3 6 -1 10 4 10 6 0 11 -4 11 -10z m-680 -41
c-44 -39 -113 -92 -97 -74 15 17 132 114 137 114 3 0 -15 -18 -40 -40z m2175
-9 c10 -11 16 -20 13 -20 -3 0 -13 9 -23 20 -10 11 -16 20 -13 20 3 0 13 -9
23 -20z m-1660 -40 c21 -22 37 -40 34 -40 -3 0 -23 18 -44 40 -21 22 -37 40
-34 40 3 0 23 -18 44 -40z m470 10 c-3 -5 -12 -10 -18 -10 -7 0 -6 4 3 10 19
12 23 12 15 0z m1270 -30 c10 -11 16 -20 13 -20 -3 0 -13 9 -23 20 -10 11 -16
20 -13 20 3 0 13 -9 23 -20z m-2869 -8 c-3 -3 0 -12 6 -21 10 -13 10 -14 -2
-4 -16 15 -23 46 -8 37 5 -3 7 -9 4 -12z m2935 -49 c13 -16 12 -17 -3 -4 -10
7 -18 15 -18 17 0 8 8 3 21 -13z m64 -53 c21 -22 37 -40 34 -40 -3 0 -23 18
-44 40 -21 22 -37 40 -34 40 3 0 23 -18 44 -40z m-995 25 c0 -2 -10 -9 -22
-15 -22 -11 -22 -10 -4 4 21 17 26 19 26 11z m-1315 -25 c3 -5 1 -10 -4 -10
-6 0 -11 5 -11 10 0 6 2 10 4 10 3 0 8 -4 11 -10z m1265 -4 c0 -2 -7 -7 -16
-10 -8 -3 -12 -2 -9 4 6 10 25 14 25 6z m-1210 -66 c17 -22 30 -40 27 -40 -3
0 -22 21 -43 47 -21 26 -33 44 -27 40 6 -4 26 -25 43 -47z m1150 40 c0 -5 -5
-10 -11 -10 -5 0 -7 5 -4 10 3 6 8 10 11 10 2 0 4 -4 4 -10z m-30 -14 c0 -2
-7 -7 -16 -10 -8 -3 -12 -2 -9 4 6 10 25 14 25 6z m1201 -13 c13 -16 12 -17
-3 -4 -10 7 -18 15 -18 17 0 8 8 3 21 -13z m50 -50 c13 -16 12 -17 -3 -4 -10
7 -18 15 -18 17 0 8 8 3 21 -13z m-1391 -3 c-8 -5 -19 -10 -25 -10 -5 0 -3 5
5 10 8 5 20 10 25 10 6 0 3 -5 -5 -10z m-55 -20 c-3 -5 -12 -10 -18 -10 -7 0
-6 4 3 10 19 12 23 12 15 0z m1485 -15 c14 -19 14 -19 -2 -6 -10 7 -18 18 -18
24 0 6 1 8 3 6 1 -2 9 -13 17 -24z m-1199 -62 c-4 -28 -6 -32 -9 -15 -3 22 3
52 11 52 1 0 1 -17 -2 -37z m1280 -10 c13 -17 13 -17 -6 -3 -11 8 -22 16 -24
17 -2 2 0 3 6 3 6 0 17 -8 24 -17z m-1471 -7 c0 -3 -4 -8 -10 -11 -5 -3 -10
-1 -10 4 0 6 5 11 10 11 6 0 10 -2 10 -4z m1510 -36 c6 -11 9 -20 8 -20 -2 0
-11 9 -21 20 -9 11 -13 20 -7 20 5 0 14 -9 20 -20z m-1323 -12 c-3 -8 -6 -5
-6 6 -1 11 2 17 5 13 3 -3 4 -12 1 -19z m-207 -12 c0 -9 -31 -76 -35 -76 -3 0
1 15 9 34 8 19 12 37 8 40 -3 3 0 6 6 6 7 0 12 -2 12 -4z m1645 -106 c11 -15
-6 1 -37 35 -32 33 -57 63 -58 68 0 7 50 -48 95 -103z m-1422 23 c3 -24 2 -43
-2 -43 -4 0 -8 19 -10 42 -1 23 -5 46 -8 52 -4 7 -3 8 4 1 6 -5 13 -29 16 -52z
m-262 -26 c-10 -9 -11 -8 -5 6 3 10 9 15 12 12 3 -3 0 -11 -7 -18z m-38 -140
c-20 -64 -38 -115 -40 -113 -3 2 12 57 32 121 20 64 38 115 40 113 2 -2 -12
-57 -32 -121z m327 19 c0 -13 -13 2 -16 17 -14 75 -14 81 1 37 8 -25 15 -49
15 -54z m1453 59 c23 -32 17 -32 -13 0 -13 14 -19 25 -14 25 5 0 17 -12 27
-25z m-2652 -49 c-14 -30 -27 -53 -29 -51 -7 7 42 105 52 105 1 0 -9 -24 -23
-54z m2694 3 c11 -17 -1 -21 -15 -4 -8 9 -8 15 -2 15 6 0 14 -5 17 -11z
m-2105 -46 c0 -7 -39 17 -46 28 -3 6 5 3 20 -6 14 -10 26 -19 26 -22z m639
-78 c-1 -18 -27 59 -28 80 0 11 7 0 15 -25 7 -25 13 -49 13 -55z m1491 87 c0
-5 9 -18 21 -31 30 -32 189 -273 189 -287 0 -6 9 -23 21 -38 11 -14 17 -26 12
-26 -4 0 -2 -4 5 -9 7 -4 14 -14 16 -22 1 -8 12 -36 25 -64 26 -58 75 -203 86
-260 13 -59 23 -123 23 -135 0 -8 2 -27 5 -42 3 -16 1 -28 -4 -28 -5 0 -9 12
-10 28 -3 105 -48 289 -99 407 -21 49 -30 73 -29 81 0 4 -4 10 -11 14 -6 4
-12 13 -13 21 -2 8 -10 25 -20 39 -9 13 -17 28 -17 32 0 7 -39 71 -98 163 -15
22 -48 68 -75 103 -27 34 -44 62 -38 62 6 0 11 -4 11 -8z m-2506 -95 c32 -47
106 -189 106 -202 0 -3 -5 -5 -12 -5 -6 0 -9 3 -5 6 8 8 -56 135 -106 208 -22
32 -35 56 -29 52 7 -4 27 -30 46 -59z m461 11 l50 -53 -55 50 c-30 28 -57 51
-59 53 -2 1 0 2 5 2 5 0 32 -24 59 -52z m629 -28 c4 -24 3 -28 -2 -15 -14 31
-24 83 -13 65 5 -8 11 -31 15 -50z m-2194 15 c-7 -8 -17 -15 -23 -15 -6 0 -2
7 9 15 25 19 30 19 14 0z m828 -55 c7 -11 11 -20 9 -20 -2 0 -12 9 -22 20 -10
11 -14 20 -9 20 5 0 15 -9 22 -20z m824 -30 c36 -52 29 -51 -12 0 -17 22 -28
40 -23 40 4 -1 20 -19 35 -40z m542 -17 c-3 -27 -13 -59 -21 -73 -9 -15 -12
-17 -7 -5 13 38 24 107 18 116 -3 5 0 9 6 9 8 0 9 -15 4 -47z m-1350 -8 c-2
-14 -16 -56 -30 -93 -14 -37 -30 -82 -36 -99 -6 -18 -15 -33 -19 -33 -4 0 11
46 33 102 22 57 41 113 41 125 0 13 3 23 8 23 4 0 6 -11 3 -25z m855 -46 c18
-31 51 -109 45 -109 -3 0 -14 21 -26 48 -11 26 -27 55 -36 65 -8 9 -11 17 -6
17 5 0 15 -10 23 -21z m449 -74 c-12 -14 -23 -25 -25 -25 -2 0 4 11 13 25 9
14 20 25 25 25 5 0 -1 -11 -13 -25z m-928 -12 c0 -19 -13 -9 -16 12 -1 8 2 13
7 9 5 -3 9 -12 9 -21z m11 -108 c3 -103 0 -145 -10 -145 -4 0 -5 17 -1 38 7
40 3 157 -6 182 -3 10 -2 12 5 5 6 -6 11 -42 12 -80z m539 44 c0 -18 -18 -9
-23 12 -4 16 -3 18 9 8 8 -6 14 -15 14 -20z m16 -67 c4 -20 11 -45 15 -54 5
-9 5 -19 1 -22 -5 -3 -15 24 -24 59 -8 36 -11 62 -7 59 5 -2 11 -21 15 -42z
m-1079 -109 c-77 -181 -107 -259 -107 -277 0 -9 -4 -16 -9 -16 -12 0 13 73 79
231 76 183 83 199 88 195 2 -2 -21 -62 -51 -133z m3071 45 c6 -18 29 -84 51
-145 22 -62 38 -113 35 -113 -4 0 -1 -7 6 -15 7 -8 9 -15 5 -15 -4 0 -2 -7 5
-15 7 -9 10 -18 7 -22 -4 -3 -3 -13 2 -22 14 -28 22 -71 12 -71 -4 0 -12 19
-16 43 -5 23 -9 44 -10 47 -1 3 -7 25 -14 50 -7 25 -16 52 -19 60 -3 8 -6 17
-7 20 -5 21 -28 90 -37 110 -24 57 -28 66 -38 93 -5 15 -6 27 -1 27 4 0 13
-15 19 -32z m-1962 -190 c1 -79 -1 -153 -4 -166 -4 -13 -6 40 -6 118 1 78 -2
158 -6 177 -6 26 -5 32 2 25 7 -7 12 -67 14 -154z m-606 67 c-7 -25 -15 -44
-17 -42 -2 3 2 25 9 50 6 26 14 44 16 42 3 -2 -1 -25 -8 -50z m-27 -95 c-9
-22 -18 -39 -19 -37 -7 6 17 77 26 77 4 0 1 -18 -7 -40z m-33 -99 c-6 -22 -16
-43 -22 -47 -6 -4 -8 -1 -5 7 3 8 11 31 18 52 16 49 23 40 9 -12z m-810 -39
c-20 -40 -32 -93 -34 -147 0 -18 -4 -36 -7 -39 -3 -3 -4 20 -3 51 2 54 26 134
47 161 17 21 16 13 -3 -26z m241 -33 c-6 -16 -10 -18 -10 -7 -1 22 12 55 16
42 2 -6 -1 -22 -6 -35z m539 -34 c-5 -22 -10 -58 -10 -80 0 -26 -3 -35 -9 -27
-10 16 13 161 24 150 2 -2 0 -21 -5 -43z m-540 -5 c0 -5 -4 -10 -10 -10 -5 0
-10 5 -10 10 0 6 5 10 10 10 6 0 10 -4 10 -10z m1223 -5 c-3 -9 -8 -14 -10
-11 -3 3 -2 9 2 15 9 16 15 13 8 -4z m2122 -65 c3 -25 10 -69 14 -97 4 -29 4
-53 -1 -53 -4 0 -9 12 -9 28 -1 15 -2 32 -3 37 -1 6 -5 30 -9 55 -18 102 -18
105 -9 90 6 -8 13 -35 17 -60z m-3343 -85 c19 -102 69 -198 155 -299 18 -22
33 -44 33 -49 0 -10 -33 31 -92 113 -17 25 -34 47 -38 50 -10 9 -58 123 -65
155 -4 17 -8 59 -9 95 -2 36 -2 49 0 30 2 -19 9 -62 16 -95z m961 73 c-9 -29
-20 -57 -26 -63 -7 -7 -7 -4 -2 10 4 11 12 39 18 63 6 23 14 42 18 42 4 0 0
-24 -8 -52z m257 32 c0 -11 -4 -20 -9 -20 -5 0 -7 9 -4 20 3 11 7 20 9 20 2 0
4 -9 4 -20z m-21 -86 c-6 -27 -15 -53 -20 -58 -4 -4 0 19 8 53 9 34 17 60 20
58 2 -3 -1 -26 -8 -53z m-1475 -60 c-5 -91 -14 -94 -14 -6 0 40 4 72 8 72 5 0
7 -30 6 -66z m1204 4 c-6 -18 -15 -37 -20 -43 -9 -10 -9 -8 11 48 15 38 22 34
9 -5z m232 -73 c-19 -54 -61 -138 -66 -132 -2 1 10 29 26 61 16 32 32 73 36
92 3 19 10 34 15 34 4 0 -1 -25 -11 -55z m2205 -102 c-5 -152 -11 -208 -27
-268 -5 -22 -11 -47 -13 -55 -7 -38 -27 -107 -35 -125 -5 -11 -18 -42 -29 -70
-11 -27 -20 -43 -20 -34 -1 8 10 42 23 75 20 50 49 151 61 212 2 9 4 17 5 17
9 0 23 171 23 278 1 59 4 107 9 107 5 0 6 -62 3 -137z m-2476 83 c-7 -14 -16
-26 -20 -26 -5 0 0 13 9 29 20 36 27 34 11 -3z m1974 -99 c-16 -34 -63 -135
-103 -224 -40 -90 -77 -163 -81 -163 -9 0 56 147 74 169 7 8 11 16 10 17 -3 4
20 57 64 154 17 36 36 80 44 98 8 17 16 27 17 22 2 -6 -9 -39 -25 -73z m-2015
33 c-7 -11 -17 -20 -22 -20 -5 0 -1 9 9 20 10 11 20 20 22 20 2 0 -2 -9 -9
-20z m1821 -31 c-6 -19 -15 -43 -19 -54 -5 -11 -21 -57 -36 -102 -15 -46 -31
-83 -35 -83 -4 0 8 44 28 98 19 53 36 104 38 112 7 30 26 73 30 68 3 -3 0 -20
-6 -39z m-1849 -3 c0 -2 -8 -10 -17 -17 -16 -13 -17 -12 -4 4 13 16 21 21 21
13z m270 -29 c0 -2 -14 -16 -32 -33 l-32 -29 25 32 c20 27 39 41 39 30z m-70
-61 c0 -2 -8 -10 -17 -17 -16 -13 -17 -12 -4 4 13 16 21 21 21 13z m1523 -269
c-21 -59 -41 -107 -45 -107 -4 0 4 30 18 68 14 37 27 74 29 82 7 30 26 73 30
68 3 -3 -11 -53 -32 -111z m-392 -4 c-10 -21 -26 -47 -35 -58 -14 -18 -15 -18
-16 -2 0 9 3 17 8 17 4 0 18 20 31 45 13 25 26 43 28 41 2 -2 -5 -21 -16 -43z
m-517 -169 c-60 -88 -112 -160 -116 -162 -4 -2 -8 -8 -8 -13 0 -11 -71 -113
-82 -117 -5 -2 -8 -8 -8 -13 0 -5 -22 -40 -50 -79 -27 -39 -50 -75 -50 -80 0
-6 -4 -10 -9 -10 -6 0 -16 -11 -23 -25 -16 -30 -150 -225 -155 -225 -8 0 -2
20 10 32 6 7 34 46 61 87 27 40 56 79 64 87 7 8 11 14 7 14 -7 0 47 73 58 78
4 2 7 10 7 18 0 8 5 14 10 14 6 0 10 6 10 14 0 8 3 16 8 18 4 2 40 53 81 113
41 61 78 112 83 113 4 2 8 7 8 12 0 7 127 200 148 225 5 6 17 23 27 38 10 15
20 26 22 23 2 -2 -44 -75 -103 -162z m466 82 c0 -12 -73 -126 -78 -121 -3 2 9
28 26 56 18 27 32 55 32 60 0 5 5 9 10 9 6 0 10 -2 10 -4z m396 -53 c-10 -10
-19 5 -10 18 6 11 8 11 12 0 2 -7 1 -15 -2 -18z m-9 -25 c-3 -7 -15 -46 -28
-85 -13 -40 -28 -73 -33 -73 -4 0 -6 6 -4 13 3 6 16 45 29 84 13 40 28 73 32
73 5 0 7 -6 4 -12z m-499 -119 c-18 -30 -36 -55 -40 -57 -4 -2 -8 -8 -8 -14 0
-14 -83 -130 -106 -149 -10 -7 -2 9 18 36 19 28 47 68 62 90 14 22 29 45 34
50 4 6 11 17 15 25 8 15 24 43 41 68 4 7 10 11 13 9 2 -3 -11 -29 -29 -58z
m432 -78 c-4 -15 -13 -37 -19 -48 -5 -11 -8 -23 -5 -26 3 -3 0 -8 -7 -12 -13
-9 -10 13 13 78 15 43 31 51 18 8z m-1349 -103 c-11 -51 -25 -108 -30 -125 -5
-18 -7 -33 -5 -33 3 0 2 -6 -3 -12 -4 -7 -8 -15 -8 -18 -1 -6 -18 -82 -20 -92
-2 -5 -3 -18 -4 -30 -1 -17 -4 -19 -10 -9 -5 7 -3 31 5 57 7 24 10 44 7 44 -3
0 0 7 7 15 7 8 10 15 7 15 -3 0 2 26 10 58 19 71 25 100 39 167 9 48 15 67 21
62 2 -3 -5 -47 -16 -99z m-106 82 c-4 -6 -45 -36 -93 -68 -48 -32 -116 -79
-152 -103 -88 -61 -90 -62 -90 -50 0 6 5 11 10 11 6 0 28 12 49 28 21 15 47
33 57 40 11 7 64 43 119 81 108 75 109 76 100 61z m1375 -183 c-23 -45 -47
-89 -54 -97 -6 -8 -18 -27 -26 -43 -14 -28 -100 -133 -100 -122 0 3 21 34 48
70 65 87 95 138 133 224 19 40 35 68 37 62 2 -6 -15 -49 -38 -94z m-1720 -52
c0 -2 -10 -9 -22 -15 -22 -11 -22 -10 -4 4 21 17 26 19 26 11z m-56 -42 c-6
-2 -58 -37 -117 -77 -58 -41 -103 -69 -100 -63 7 16 217 156 223 149 3 -2 0
-6 -6 -9z"/>
</g>
</svg>
